<svg width="32" height="40" viewBox="0 0 32 40" fill="none" xmlns="http://www.w3.org/2000/svg">
<rect y="7.70001" width="31.9" height="31.9" rx="4.4" fill="#EBEAEA"/>
<mask id="path-2-outside-1_64_283" maskUnits="userSpaceOnUse" x="6.40002" y="3" width="19" height="31" fill="black">
<rect fill="white" x="6.40002" y="3" width="19" height="31"/>
<path d="M13.9436 28.1984C15.5804 28.1984 16.8212 27.7628 17.666 26.8916C18.5372 26.0204 18.9728 24.9644 18.9728 23.7236C18.9728 22.2188 18.524 21.11 17.6264 20.3972C16.7288 19.6844 15.3164 19.328 13.3892 19.328H10.538V16.5956L15.3296 10.0616L17.5868 8.2796L14.4584 8.636H7.80562V4.28H22.9328V7.0916L17.3492 14.576L15.6068 15.6452V15.8432L17.27 15.6056C18.194 15.6848 19.0652 15.896 19.8836 16.2392C20.7284 16.5824 21.4544 17.084 22.0616 17.744C22.6952 18.3776 23.1968 19.1696 23.5664 20.12C23.936 21.0704 24.1208 22.166 24.1208 23.4068C24.1208 24.9644 23.8568 26.3108 23.3288 27.446C22.8272 28.5812 22.1144 29.5316 21.1904 30.2972C20.2928 31.0628 19.2368 31.6304 18.0224 32C16.808 32.3696 15.5012 32.5544 14.102 32.5544C12.9404 32.5544 11.7392 32.4488 10.4984 32.2376C9.25763 32.0264 8.25442 31.7228 7.48882 31.3268L8.87482 27.05C9.56123 27.3932 10.3136 27.6704 11.132 27.8816C11.9768 28.0928 12.914 28.1984 13.9436 28.1984Z"/>
</mask>
<path d="M13.9436 28.1984C15.5804 28.1984 16.8212 27.7628 17.666 26.8916C18.5372 26.0204 18.9728 24.9644 18.9728 23.7236C18.9728 22.2188 18.524 21.11 17.6264 20.3972C16.7288 19.6844 15.3164 19.328 13.3892 19.328H10.538V16.5956L15.3296 10.0616L17.5868 8.2796L14.4584 8.636H7.80562V4.28H22.9328V7.0916L17.3492 14.576L15.6068 15.6452V15.8432L17.27 15.6056C18.194 15.6848 19.0652 15.896 19.8836 16.2392C20.7284 16.5824 21.4544 17.084 22.0616 17.744C22.6952 18.3776 23.1968 19.1696 23.5664 20.12C23.936 21.0704 24.1208 22.166 24.1208 23.4068C24.1208 24.9644 23.8568 26.3108 23.3288 27.446C22.8272 28.5812 22.1144 29.5316 21.1904 30.2972C20.2928 31.0628 19.2368 31.6304 18.0224 32C16.808 32.3696 15.5012 32.5544 14.102 32.5544C12.9404 32.5544 11.7392 32.4488 10.4984 32.2376C9.25763 32.0264 8.25442 31.7228 7.48882 31.3268L8.87482 27.05C9.56123 27.3932 10.3136 27.6704 11.132 27.8816C11.9768 28.0928 12.914 28.1984 13.9436 28.1984Z" fill="#FFA300"/>
<path d="M17.666 26.8916L17.2771 26.5026L17.2712 26.5087L17.666 26.8916ZM10.538 19.328H9.98802V19.878H10.538V19.328ZM10.538 16.5956L10.0945 16.2703L9.98802 16.4155V16.5956H10.538ZM15.3296 10.0616L14.9888 9.62991L14.9302 9.67616L14.8861 9.73635L15.3296 10.0616ZM17.5868 8.2796L17.9276 8.71128L19.4435 7.51452L17.5246 7.73313L17.5868 8.2796ZM14.4584 8.636V9.186H14.4897L14.5207 9.18246L14.4584 8.636ZM7.80562 8.636H7.25562V9.186H7.80562V8.636ZM7.80562 4.28V3.73H7.25562V4.28H7.80562ZM22.9328 4.28H23.4828V3.73H22.9328V4.28ZM22.9328 7.0916L23.3737 7.42048L23.4828 7.27415V7.0916H22.9328ZM17.3492 14.576L17.6369 15.0448L17.7269 14.9895L17.7901 14.9049L17.3492 14.576ZM15.6068 15.6452L15.3192 15.1764L15.0568 15.3374V15.6452H15.6068ZM15.6068 15.8432H15.0568V16.4774L15.6846 16.3877L15.6068 15.8432ZM17.27 15.6056L17.317 15.0576L17.2544 15.0522L17.1922 15.0611L17.27 15.6056ZM19.8836 16.2392L19.6709 16.7464L19.6766 16.7488L19.8836 16.2392ZM22.0616 17.744L21.6569 18.1164L21.6646 18.1248L21.6727 18.1329L22.0616 17.744ZM23.3288 27.446L22.83 27.214L22.8257 27.2237L23.3288 27.446ZM21.1904 30.2972L20.8395 29.8736L20.8335 29.8787L21.1904 30.2972ZM10.4984 32.2376L10.5907 31.6954L10.4984 32.2376ZM7.48882 31.3268L6.96561 31.1572L6.8218 31.601L7.23614 31.8153L7.48882 31.3268ZM8.87483 27.05L9.12079 26.5581L8.54878 26.2721L8.35161 26.8804L8.87483 27.05ZM11.132 27.8816L10.9946 28.4142L10.9986 28.4152L11.132 27.8816ZM13.9436 28.7484C15.6756 28.7484 17.0803 28.2857 18.0609 27.2745L17.2712 26.5087C16.5622 27.2399 15.4853 27.6484 13.9436 27.6484V28.7484ZM18.0549 27.2805C19.0301 26.3053 19.5228 25.1091 19.5228 23.7236H18.4228C18.4228 24.8197 18.0444 25.7355 17.2771 26.5027L18.0549 27.2805ZM19.5228 23.7236C19.5228 22.1077 19.0362 20.8144 17.9685 19.9665L17.2844 20.8279C18.0118 21.4056 18.4228 22.3299 18.4228 23.7236H19.5228ZM17.9685 19.9665C16.9267 19.1392 15.3634 18.778 13.3892 18.778V19.878C15.2695 19.878 16.5309 20.2296 17.2844 20.8279L17.9685 19.9665ZM13.3892 18.778H10.538V19.878H13.3892V18.778ZM11.088 19.328V16.5956H9.98802V19.328H11.088ZM10.9815 16.9208L15.7731 10.3868L14.8861 9.73635L10.0945 16.2703L10.9815 16.9208ZM15.6704 10.4933L17.9276 8.71128L17.246 7.84791L14.9888 9.62991L15.6704 10.4933ZM17.5246 7.73313L14.3962 8.08953L14.5207 9.18246L17.6491 8.82606L17.5246 7.73313ZM14.4584 8.086H7.80562V9.186H14.4584V8.086ZM8.35562 8.636V4.28H7.25562V8.636H8.35562ZM7.80562 4.83H22.9328V3.73H7.80562V4.83ZM22.3828 4.28V7.0916H23.4828V4.28H22.3828ZM22.492 6.76272L16.9084 14.2471L17.7901 14.9049L23.3737 7.42048L22.492 6.76272ZM17.0616 14.1072L15.3192 15.1764L15.8945 16.114L17.6369 15.0448L17.0616 14.1072ZM15.0568 15.6452V15.8432H16.1568V15.6452H15.0568ZM15.6846 16.3877L17.3478 16.1501L17.1922 15.0611L15.529 15.2987L15.6846 16.3877ZM17.2231 16.1536C18.0926 16.2281 18.9077 16.4263 19.6709 16.7464L20.0963 15.732C19.2228 15.3657 18.2954 15.1415 17.317 15.0576L17.2231 16.1536ZM19.6766 16.7488C20.4475 17.0619 21.1056 17.5172 21.6569 18.1164L22.4664 17.3716C21.8033 16.6508 21.0094 16.1029 20.0906 15.7296L19.6766 16.7488ZM21.6727 18.1329C22.2454 18.7056 22.7081 19.4302 23.0538 20.3193L24.079 19.9207C23.6856 18.909 23.145 18.0496 22.4505 17.3551L21.6727 18.1329ZM23.0538 20.3193C23.394 21.1941 23.5708 22.2198 23.5708 23.4068H24.6708C24.6708 22.1122 24.4781 20.9467 24.079 19.9207L23.0538 20.3193ZM23.5708 23.4068C23.5708 24.9033 23.3171 26.167 22.8301 27.214L23.8275 27.678C24.3965 26.4546 24.6708 25.0255 24.6708 23.4068H23.5708ZM22.8257 27.2237C22.3574 28.2837 21.6956 29.1644 20.8395 29.8737L21.5413 30.7207C22.5332 29.8988 23.2971 28.8787 23.8319 27.6683L22.8257 27.2237ZM20.8335 29.8787C19.9977 30.5917 19.01 31.1245 17.8623 31.4738L18.1826 32.5262C19.4637 32.1363 20.588 31.5339 21.5473 30.7157L20.8335 29.8787ZM17.8623 31.4738C16.7048 31.8261 15.4525 32.0044 14.102 32.0044V33.1044C15.55 33.1044 16.9112 32.9131 18.1826 32.5262L17.8623 31.4738ZM14.102 32.0044C12.9738 32.0044 11.8035 31.9018 10.5907 31.6954L10.4061 32.7798C11.6749 32.9958 12.9071 33.1044 14.102 33.1044V32.0044ZM10.5907 31.6954C9.38255 31.4898 8.43934 31.1992 7.74151 30.8383L7.23614 31.8153C8.06951 32.2464 9.1327 32.563 10.4061 32.7798L10.5907 31.6954ZM8.01204 31.4964L9.39804 27.2196L8.35161 26.8804L6.96561 31.1572L8.01204 31.4964ZM8.62886 27.5419C9.35319 27.9041 10.1424 28.1942 10.9946 28.4142L11.2695 27.349C10.4848 27.1466 9.76926 26.8823 9.12079 26.5581L8.62886 27.5419ZM10.9986 28.4152C11.8941 28.6391 12.877 28.7484 13.9436 28.7484V27.6484C12.9511 27.6484 12.0595 27.5465 11.2654 27.348L10.9986 28.4152Z" fill="#FFA300" mask="url(#path-2-outside-1_64_283)"/>
</svg>
