<svg width="32" height="40" viewBox="0 0 32 40" fill="none" xmlns="http://www.w3.org/2000/svg">
<rect y="7.70001" width="31.9" height="31.9" rx="4.4" fill="#EBEAEA"/>
<mask id="path-2-outside-1_64_280" maskUnits="userSpaceOnUse" x="6.40002" y="3" width="18" height="30" fill="black">
<rect fill="white" x="6.40002" y="3" width="18" height="30"/>
<path d="M23.21 11.0516C23.21 12.398 22.9592 13.7576 22.4576 15.1304C21.9824 16.5032 21.362 17.8496 20.5964 19.1696C19.8572 20.4896 19.0256 21.77 18.1016 23.0108C17.204 24.2252 16.3196 25.3472 15.4484 26.3768L13.3496 28.0004V28.1984L16.2008 27.644H23.804V32H7.13242V29.3468C7.76602 28.6868 8.47882 27.9212 9.27082 27.05C10.0628 26.1524 10.8548 25.2152 11.6468 24.2384C12.4652 23.2352 13.2572 22.2056 14.0228 21.1496C14.7884 20.0936 15.4748 19.0376 16.082 17.9816C16.6892 16.8992 17.1644 15.8564 17.5076 14.8532C17.8772 13.85 18.062 12.8996 18.062 12.002C18.062 10.9196 17.7452 10.0352 17.1116 9.3488C16.5044 8.636 15.5276 8.2796 14.1812 8.2796C13.3364 8.2796 12.4652 8.4644 11.5676 8.834C10.6964 9.1772 9.95722 9.626 9.35002 10.1804L7.29082 6.5372C8.32042 5.6924 9.48202 5.0192 10.7756 4.5176C12.0956 3.9896 13.64 3.7256 15.4088 3.7256C16.544 3.7256 17.5868 3.884 18.5372 4.2008C19.4876 4.5176 20.306 4.9796 20.9924 5.5868C21.6788 6.194 22.22 6.9596 22.616 7.8836C23.012 8.7812 23.21 9.8372 23.21 11.0516Z"/>
</mask>
<path d="M23.21 11.0516C23.21 12.398 22.9592 13.7576 22.4576 15.1304C21.9824 16.5032 21.362 17.8496 20.5964 19.1696C19.8572 20.4896 19.0256 21.77 18.1016 23.0108C17.204 24.2252 16.3196 25.3472 15.4484 26.3768L13.3496 28.0004V28.1984L16.2008 27.644H23.804V32H7.13242V29.3468C7.76602 28.6868 8.47882 27.9212 9.27082 27.05C10.0628 26.1524 10.8548 25.2152 11.6468 24.2384C12.4652 23.2352 13.2572 22.2056 14.0228 21.1496C14.7884 20.0936 15.4748 19.0376 16.082 17.9816C16.6892 16.8992 17.1644 15.8564 17.5076 14.8532C17.8772 13.85 18.062 12.8996 18.062 12.002C18.062 10.9196 17.7452 10.0352 17.1116 9.3488C16.5044 8.636 15.5276 8.2796 14.1812 8.2796C13.3364 8.2796 12.4652 8.4644 11.5676 8.834C10.6964 9.1772 9.95722 9.626 9.35002 10.1804L7.29082 6.5372C8.32042 5.6924 9.48202 5.0192 10.7756 4.5176C12.0956 3.9896 13.64 3.7256 15.4088 3.7256C16.544 3.7256 17.5868 3.884 18.5372 4.2008C19.4876 4.5176 20.306 4.9796 20.9924 5.5868C21.6788 6.194 22.22 6.9596 22.616 7.8836C23.012 8.7812 23.21 9.8372 23.21 11.0516Z" fill="#FFA300"/>
<path d="M22.4576 15.1304L21.941 14.9416L21.9379 14.9505L22.4576 15.1304ZM20.5964 19.1696L20.1206 18.8936L20.1165 18.9009L20.5964 19.1696ZM18.1016 23.0108L17.6605 22.6823L17.6593 22.6839L18.1016 23.0108ZM15.4484 26.3768L15.785 26.8118L15.8308 26.7763L15.8683 26.7321L15.4484 26.3768ZM13.3496 28.0004L13.0131 27.5654L12.7996 27.7305V28.0004H13.3496ZM13.3496 28.1984H12.7996V28.8656L13.4546 28.7383L13.3496 28.1984ZM16.2008 27.644V27.094H16.1478L16.0958 27.1041L16.2008 27.644ZM23.804 27.644H24.354V27.094H23.804V27.644ZM23.804 32V32.55H24.354V32H23.804ZM7.13242 32H6.58242V32.55H7.13242V32ZM7.13242 29.3468L6.73566 28.9659L6.58242 29.1255V29.3468H7.13242ZM9.27082 27.05L9.67784 27.42L9.68324 27.4139L9.27082 27.05ZM11.6468 24.2384L11.2206 23.8907L11.2196 23.892L11.6468 24.2384ZM14.0228 21.1496L13.5775 20.8268L14.0228 21.1496ZM16.082 17.9816L16.5589 18.2558L16.5617 18.2507L16.082 17.9816ZM17.5076 14.8532L16.9914 14.663L16.9872 14.6752L17.5076 14.8532ZM17.1116 9.3488L16.6929 9.70545L16.7 9.7138L16.7075 9.72185L17.1116 9.3488ZM11.5676 8.834L11.7692 9.34578L11.777 9.34257L11.5676 8.834ZM9.35002 10.1804L8.87121 10.451L9.21097 11.0521L9.72087 10.5866L9.35002 10.1804ZM7.29082 6.5372L6.94195 6.11201L6.5845 6.4053L6.81202 6.80783L7.29082 6.5372ZM10.7756 4.5176L10.9745 5.03043L10.9799 5.02826L10.7756 4.5176ZM18.5372 4.2008L18.3633 4.72257H18.3633L18.5372 4.2008ZM20.9924 5.5868L21.3568 5.17485L20.9924 5.5868ZM22.616 7.8836L22.1105 8.10026L22.1128 8.1056L22.616 7.8836ZM22.66 11.0516C22.66 12.3283 22.4224 13.6241 21.941 14.9416L22.9742 15.3192C23.496 13.8911 23.76 12.4677 23.76 11.0516H22.66ZM21.9379 14.9505C21.4748 16.2883 20.8694 17.6026 20.1207 18.8937L21.0722 19.4455C21.8546 18.0965 22.4901 16.7181 22.9774 15.3103L21.9379 14.9505ZM20.1165 18.9009C19.3892 20.1997 18.5706 21.4601 17.6605 22.6823L18.5427 23.3393C19.4806 22.0799 20.3252 20.7795 21.0763 19.4383L20.1165 18.9009ZM17.6593 22.6839C16.7681 23.8897 15.8911 25.0021 15.0286 26.0215L15.8683 26.7321C16.7481 25.6923 17.64 24.5607 18.5439 23.3377L17.6593 22.6839ZM15.1119 25.9418L13.0131 27.5654L13.6862 28.4354L15.785 26.8118L15.1119 25.9418ZM12.7996 28.0004V28.1984H13.8996V28.0004H12.7996ZM13.4546 28.7383L16.3058 28.1839L16.0958 27.1041L13.2446 27.6585L13.4546 28.7383ZM16.2008 28.194H23.804V27.094H16.2008V28.194ZM23.254 27.644V32H24.354V27.644H23.254ZM23.804 31.45H7.13242V32.55H23.804V31.45ZM7.68242 32V29.3468H6.58242V32H7.68242ZM7.52919 29.7277C8.16705 29.0633 8.88333 28.2939 9.67779 27.42L8.86386 26.68C8.07432 27.5485 7.365 28.3103 6.73566 28.9659L7.52919 29.7277ZM9.68324 27.4139C10.4805 26.5103 11.2775 25.5672 12.074 24.5848L11.2196 23.892C10.4322 24.8632 9.64511 25.7945 8.85841 26.6861L9.68324 27.4139ZM12.073 24.5861C12.8981 23.5747 13.6964 22.5368 14.4681 21.4724L13.5775 20.8268C12.818 21.8744 12.0324 22.8957 11.2206 23.8907L12.073 24.5861ZM14.4681 21.4724C15.2443 20.4019 15.9413 19.3297 16.5588 18.2558L15.6052 17.7074C15.0083 18.7455 14.3326 19.7853 13.5775 20.8268L14.4681 21.4724ZM16.5617 18.2507C17.1825 17.144 17.6724 16.0707 18.028 15.0312L16.9872 14.6752C16.6565 15.6421 16.1959 16.6544 15.6023 17.7125L16.5617 18.2507ZM18.0237 15.0433C18.4116 13.9906 18.612 12.9756 18.612 12.002H17.512C17.512 12.8236 17.3429 13.7094 16.9915 14.6631L18.0237 15.0433ZM18.612 12.002C18.612 10.8048 18.2579 9.77976 17.5158 8.97574L16.7075 9.72185C17.2325 10.2906 17.512 11.0344 17.512 12.002H18.612ZM17.5303 8.99214C16.7792 8.1104 15.616 7.7296 14.1812 7.7296V8.8296C15.4392 8.8296 16.2297 9.1616 16.6929 9.70545L17.5303 8.99214ZM14.1812 7.7296C13.2547 7.7296 12.3124 7.93251 11.3582 8.32542L11.777 9.34257C12.618 8.99628 13.4182 8.8296 14.1812 8.8296V7.7296ZM11.366 8.32227C10.441 8.68667 9.64227 9.1688 8.97918 9.77423L9.72087 10.5866C10.2722 10.0832 10.9518 9.66772 11.7692 9.34572L11.366 8.32227ZM9.82883 9.90977L7.76963 6.26657L6.81202 6.80783L8.87121 10.451L9.82883 9.90977ZM7.6397 6.96239C8.62239 6.15608 9.73291 5.51181 10.9745 5.0304L10.5768 4.0048C9.23114 4.52658 8.01846 5.22871 6.94195 6.11201L7.6397 6.96239ZM10.9799 5.02826C12.2212 4.53174 13.6935 4.2756 15.4088 4.2756V3.1756C13.5865 3.1756 11.9701 3.44745 10.5714 4.00694L10.9799 5.02826ZM15.4088 4.2756C16.4927 4.2756 17.4759 4.42677 18.3633 4.72257L18.7112 3.67902C17.6978 3.34122 16.5954 3.1756 15.4088 3.1756V4.2756ZM18.3633 4.72257C19.25 5.01816 20.002 5.44501 20.628 5.99874L21.3568 5.17485C20.61 4.51419 19.7252 4.01704 18.7112 3.67902L18.3633 4.72257ZM20.628 5.99874C21.2478 6.54703 21.7434 7.24364 22.1105 8.10025L23.1216 7.66694C22.6967 6.67555 22.1098 5.84097 21.3568 5.17485L20.628 5.99874ZM22.1128 8.1056C22.4715 8.91871 22.66 9.89597 22.66 11.0516H23.76C23.76 9.77843 23.5525 8.64368 23.1192 7.6616L22.1128 8.1056Z" fill="#FFA300" mask="url(#path-2-outside-1_64_280)"/>
</svg>
