<svg width="32" height="40" viewBox="0 0 32 40" fill="none" xmlns="http://www.w3.org/2000/svg">
<rect y="7.70001" width="31.9" height="31.9" rx="4.4" fill="#EBEAEA"/>
<mask id="path-2-outside-1_64_277" maskUnits="userSpaceOnUse" x="5.40002" y="3" width="20" height="30" fill="black">
<rect fill="white" x="5.40002" y="3" width="20" height="30"/>
<path d="M8.39962 27.644H13.904V12.002L14.498 9.3092L12.5972 11.6456L9.07283 14.0612L6.89482 11.0912L15.9236 3.8048H18.8144V27.644H24.2V32H8.39962V27.644Z"/>
</mask>
<path d="M8.39962 27.644H13.904V12.002L14.498 9.3092L12.5972 11.6456L9.07283 14.0612L6.89482 11.0912L15.9236 3.8048H18.8144V27.644H24.2V32H8.39962V27.644Z" fill="#FFA300"/>
<path d="M8.39962 27.644V27.094H7.84962V27.644H8.39962ZM13.904 27.644V28.194H14.454V27.644H13.904ZM13.904 12.002L13.3669 11.8835L13.354 11.9421V12.002H13.904ZM14.498 9.3092L15.0351 9.42767L14.0714 8.9621L14.498 9.3092ZM12.5972 11.6456L12.9082 12.0993L12.9737 12.0543L13.0239 11.9927L12.5972 11.6456ZM9.07283 14.0612L8.6293 14.3864L8.94434 14.816L9.38377 14.5149L9.07283 14.0612ZM6.89482 11.0912L6.54941 10.6632L6.14076 10.993L6.4513 11.4164L6.89482 11.0912ZM15.9236 3.8048V3.2548H15.7294L15.5782 3.37679L15.9236 3.8048ZM18.8144 3.8048H19.3644V3.2548H18.8144V3.8048ZM18.8144 27.644H18.2644V28.194H18.8144V27.644ZM24.2 27.644H24.75V27.094H24.2V27.644ZM24.2 32V32.55H24.75V32H24.2ZM8.39962 32H7.84962V32.55H8.39962V32ZM8.39962 28.194H13.904V27.094H8.39962V28.194ZM14.454 27.644V12.002H13.354V27.644H14.454ZM14.4411 12.1205L15.0351 9.42767L13.9609 9.19072L13.3669 11.8835L14.4411 12.1205ZM14.0714 8.9621L12.1706 11.2985L13.0239 11.9927L14.9247 9.6563L14.0714 8.9621ZM12.2863 11.1919L8.76188 13.6075L9.38377 14.5149L12.9082 12.0993L12.2863 11.1919ZM9.51635 13.7359L7.33835 10.7659L6.4513 11.4164L8.6293 14.3864L9.51635 13.7359ZM7.24024 11.5192L16.269 4.23281L15.5782 3.37679L6.54941 10.6632L7.24024 11.5192ZM15.9236 4.3548H18.8144V3.2548H15.9236V4.3548ZM18.2644 3.8048V27.644H19.3644V3.8048H18.2644ZM18.8144 28.194H24.2V27.094H18.8144V28.194ZM23.65 27.644V32H24.75V27.644H23.65ZM24.2 31.45H8.39962V32.55H24.2V31.45ZM8.94962 32V27.644H7.84962V32H8.94962Z" fill="#FFA300" mask="url(#path-2-outside-1_64_277)"/>
</svg>
