<svg width="29" height="36" viewBox="0 0 29 36" fill="none" xmlns="http://www.w3.org/2000/svg">
<rect y="7" width="29" height="29" rx="4" fill="#EBEAEA"/>
<mask id="path-2-outside-1_65_505" maskUnits="userSpaceOnUse" x="4" y="3" width="21" height="27" fill="black">
<rect fill="white" x="4" y="3" width="21" height="27"/>
<path d="M23.908 21.98H19.948V29H15.592V21.98H4.684V19.316L16.096 3.62H19.948V18.236H23.908V21.98ZM15.592 12.728L15.916 9.704H15.772L14.548 12.296L10.804 17.156L9.004 18.524L11.308 18.236H15.592V12.728Z"/>
</mask>
<path d="M23.908 21.98H19.948V29H15.592V21.98H4.684V19.316L16.096 3.62H19.948V18.236H23.908V21.98ZM15.592 12.728L15.916 9.704H15.772L14.548 12.296L10.804 17.156L9.004 18.524L11.308 18.236H15.592V12.728Z" fill="#FFA300"/>
<path d="M23.908 21.98V22.48H24.408V21.98H23.908ZM19.948 21.98V21.48H19.448V21.98H19.948ZM19.948 29V29.5H20.448V29H19.948ZM15.592 29H15.092V29.5H15.592V29ZM15.592 21.98H16.092V21.48H15.592V21.98ZM4.684 21.98H4.184V22.48H4.684V21.98ZM4.684 19.316L4.27959 19.022L4.184 19.1534V19.316H4.684ZM16.096 3.62V3.12H15.8413L15.6916 3.32597L16.096 3.62ZM19.948 3.62H20.448V3.12H19.948V3.62ZM19.948 18.236H19.448V18.736H19.948V18.236ZM23.908 18.236H24.408V17.736H23.908V18.236ZM15.592 12.728L15.0948 12.6747L15.092 12.7013V12.728H15.592ZM15.916 9.704L16.4132 9.75727L16.4724 9.204H15.916V9.704ZM15.772 9.704V9.204H15.4552L15.3199 9.4905L15.772 9.704ZM14.548 12.296L14.9441 12.6011L14.9771 12.5583L15.0001 12.5095L14.548 12.296ZM10.804 17.156L11.1065 17.5541L11.1595 17.5138L11.2001 17.4611L10.804 17.156ZM9.004 18.524L8.70146 18.1259L7.22147 19.2507L9.06602 19.0201L9.004 18.524ZM11.308 18.236V17.736H11.2769L11.246 17.7399L11.308 18.236ZM15.592 18.236V18.736H16.092V18.236H15.592ZM23.908 21.48H19.948V22.48H23.908V21.48ZM19.448 21.98V29H20.448V21.98H19.448ZM19.948 28.5H15.592V29.5H19.948V28.5ZM16.092 29V21.98H15.092V29H16.092ZM15.592 21.48H4.684V22.48H15.592V21.48ZM5.184 21.98V19.316H4.184V21.98H5.184ZM5.08841 19.61L16.5004 3.91403L15.6916 3.32597L4.27959 19.022L5.08841 19.61ZM16.096 4.12H19.948V3.12H16.096V4.12ZM19.448 3.62V18.236H20.448V3.62H19.448ZM19.948 18.736H23.908V17.736H19.948V18.736ZM23.408 18.236V21.98H24.408V18.236H23.408ZM16.0892 12.7813L16.4132 9.75727L15.4188 9.65073L15.0948 12.6747L16.0892 12.7813ZM15.916 9.204H15.772V10.204H15.916V9.204ZM15.3199 9.4905L14.0959 12.0825L15.0001 12.5095L16.2241 9.9175L15.3199 9.4905ZM14.1519 11.9909L10.4079 16.8509L11.2001 17.4611L14.9441 12.6011L14.1519 11.9909ZM10.5015 16.7579L8.70146 18.1259L9.30654 18.9221L11.1065 17.5541L10.5015 16.7579ZM9.06602 19.0201L11.37 18.7321L11.246 17.7399L8.94198 18.0279L9.06602 19.0201ZM11.308 18.736H15.592V17.736H11.308V18.736ZM16.092 18.236V12.728H15.092V18.236H16.092Z" fill="#FFA300" mask="url(#path-2-outside-1_65_505)"/>
</svg>
